<mxfile host="app.diagrams.net" modified="2023-11-20T13:20:22.955Z" agent="Mozilla/5.0 (Windows NT 10.0; Win64; x64) AppleWebKit/537.36 (KHTML, like Gecko) Chrome/119.0.0.0 Safari/537.36" etag="FGT5tsCaE8I1NgySrI6u" version="22.1.3" type="github">
  <diagram name="Pagina-1" id="wu0ohB0BOVqG7IXLpTAo">
    <mxGraphModel dx="4573" dy="1973" grid="1" gridSize="10" guides="1" tooltips="1" connect="1" arrows="1" fold="1" page="1" pageScale="1" pageWidth="2336" pageHeight="1654" math="0" shadow="0">
      <root>
        <mxCell id="0" />
        <mxCell id="1" parent="0" />
        <mxCell id="AAiW1PB6C5ICIaIKd7cb-4" value="" style="edgeStyle=orthogonalEdgeStyle;rounded=0;orthogonalLoop=1;jettySize=auto;html=1;" edge="1" parent="1" source="AAiW1PB6C5ICIaIKd7cb-2" target="AAiW1PB6C5ICIaIKd7cb-3">
          <mxGeometry relative="1" as="geometry" />
        </mxCell>
        <mxCell id="AAiW1PB6C5ICIaIKd7cb-2" value="START" style="ellipse;whiteSpace=wrap;html=1;fillColor=#FFFF99;" vertex="1" parent="1">
          <mxGeometry x="540" y="40" width="120" height="80" as="geometry" />
        </mxCell>
        <mxCell id="AAiW1PB6C5ICIaIKd7cb-6" value="" style="edgeStyle=orthogonalEdgeStyle;rounded=0;orthogonalLoop=1;jettySize=auto;html=1;" edge="1" parent="1" source="AAiW1PB6C5ICIaIKd7cb-3" target="AAiW1PB6C5ICIaIKd7cb-5">
          <mxGeometry relative="1" as="geometry" />
        </mxCell>
        <mxCell id="AAiW1PB6C5ICIaIKd7cb-3" value="dimr = dimensione righe&lt;br&gt;dimc = dimensione colonne&lt;br&gt;inizializzo array per il nome del file" style="rounded=0;whiteSpace=wrap;html=1;fillColor=#E6E6E6;" vertex="1" parent="1">
          <mxGeometry x="502.5" y="150" width="195" height="60" as="geometry" />
        </mxCell>
        <mxCell id="AAiW1PB6C5ICIaIKd7cb-8" value="" style="edgeStyle=orthogonalEdgeStyle;rounded=0;orthogonalLoop=1;jettySize=auto;html=1;" edge="1" parent="1" source="AAiW1PB6C5ICIaIKd7cb-5" target="AAiW1PB6C5ICIaIKd7cb-7">
          <mxGeometry relative="1" as="geometry" />
        </mxCell>
        <mxCell id="AAiW1PB6C5ICIaIKd7cb-5" value="print: &quot;Hello, write here the name &lt;br&gt;of the file you want to work with:&quot;" style="shape=parallelogram;perimeter=parallelogramPerimeter;whiteSpace=wrap;html=1;fixedSize=1;fillColor=#FF99FF;" vertex="1" parent="1">
          <mxGeometry x="480" y="240" width="240" height="60" as="geometry" />
        </mxCell>
        <mxCell id="AAiW1PB6C5ICIaIKd7cb-10" value="" style="edgeStyle=orthogonalEdgeStyle;rounded=0;orthogonalLoop=1;jettySize=auto;html=1;" edge="1" parent="1" source="AAiW1PB6C5ICIaIKd7cb-7" target="AAiW1PB6C5ICIaIKd7cb-9">
          <mxGeometry relative="1" as="geometry" />
        </mxCell>
        <mxCell id="AAiW1PB6C5ICIaIKd7cb-7" value="input: nome file inserito dall&#39;utente" style="shape=parallelogram;perimeter=parallelogramPerimeter;whiteSpace=wrap;html=1;fixedSize=1;fillColor=#FF99FF;" vertex="1" parent="1">
          <mxGeometry x="480" y="330" width="240" height="60" as="geometry" />
        </mxCell>
        <mxCell id="AAiW1PB6C5ICIaIKd7cb-12" value="" style="edgeStyle=orthogonalEdgeStyle;rounded=0;orthogonalLoop=1;jettySize=auto;html=1;" edge="1" parent="1" source="AAiW1PB6C5ICIaIKd7cb-9" target="AAiW1PB6C5ICIaIKd7cb-11">
          <mxGeometry relative="1" as="geometry" />
        </mxCell>
        <mxCell id="AAiW1PB6C5ICIaIKd7cb-9" value="print: &quot;You inserted the file &quot; + nome del&amp;nbsp;&lt;br&gt;file appena inserito dall&#39;utente" style="shape=parallelogram;perimeter=parallelogramPerimeter;whiteSpace=wrap;html=1;fixedSize=1;fillColor=#FF99FF;" vertex="1" parent="1">
          <mxGeometry x="480" y="420" width="240" height="60" as="geometry" />
        </mxCell>
        <mxCell id="AAiW1PB6C5ICIaIKd7cb-14" value="" style="edgeStyle=orthogonalEdgeStyle;rounded=0;orthogonalLoop=1;jettySize=auto;html=1;" edge="1" parent="1" source="AAiW1PB6C5ICIaIKd7cb-11" target="AAiW1PB6C5ICIaIKd7cb-13">
          <mxGeometry relative="1" as="geometry" />
        </mxCell>
        <mxCell id="AAiW1PB6C5ICIaIKd7cb-11" value="apri file con nome specficato dall&#39;utete" style="rounded=0;whiteSpace=wrap;html=1;fillColor=#E6E6E6;" vertex="1" parent="1">
          <mxGeometry x="480" y="510" width="240" height="60" as="geometry" />
        </mxCell>
        <mxCell id="AAiW1PB6C5ICIaIKd7cb-15" style="edgeStyle=orthogonalEdgeStyle;rounded=0;orthogonalLoop=1;jettySize=auto;html=1;entryX=0.5;entryY=0;entryDx=0;entryDy=0;" edge="1" parent="1" source="AAiW1PB6C5ICIaIKd7cb-13" target="AAiW1PB6C5ICIaIKd7cb-17">
          <mxGeometry relative="1" as="geometry">
            <mxPoint x="959.9999999999998" y="640" as="targetPoint" />
          </mxGeometry>
        </mxCell>
        <mxCell id="AAiW1PB6C5ICIaIKd7cb-19" value="" style="edgeStyle=orthogonalEdgeStyle;rounded=0;orthogonalLoop=1;jettySize=auto;html=1;" edge="1" parent="1" source="AAiW1PB6C5ICIaIKd7cb-13" target="AAiW1PB6C5ICIaIKd7cb-18">
          <mxGeometry relative="1" as="geometry" />
        </mxCell>
        <mxCell id="AAiW1PB6C5ICIaIKd7cb-13" value="Il file non esiste o &lt;br&gt;nome errato?" style="rhombus;whiteSpace=wrap;html=1;fillColor=#99FFFF;" vertex="1" parent="1">
          <mxGeometry x="505" y="600" width="190" height="80" as="geometry" />
        </mxCell>
        <mxCell id="AAiW1PB6C5ICIaIKd7cb-16" value="Yes" style="text;html=1;strokeColor=none;fillColor=none;align=center;verticalAlign=middle;whiteSpace=wrap;rounded=0;" vertex="1" parent="1">
          <mxGeometry x="680" y="640" width="60" height="30" as="geometry" />
        </mxCell>
        <mxCell id="AAiW1PB6C5ICIaIKd7cb-152" value="" style="edgeStyle=orthogonalEdgeStyle;rounded=0;orthogonalLoop=1;jettySize=auto;html=1;" edge="1" parent="1" source="AAiW1PB6C5ICIaIKd7cb-17" target="AAiW1PB6C5ICIaIKd7cb-151">
          <mxGeometry relative="1" as="geometry" />
        </mxCell>
        <mxCell id="AAiW1PB6C5ICIaIKd7cb-17" value="print: &quot;Impossible to open file: wrong name or inesistent file&quot;" style="shape=parallelogram;perimeter=parallelogramPerimeter;whiteSpace=wrap;html=1;fixedSize=1;fillColor=#FF99FF;" vertex="1" parent="1">
          <mxGeometry x="1010" y="660" width="190" height="60" as="geometry" />
        </mxCell>
        <mxCell id="AAiW1PB6C5ICIaIKd7cb-22" value="" style="edgeStyle=orthogonalEdgeStyle;rounded=0;orthogonalLoop=1;jettySize=auto;html=1;" edge="1" parent="1" source="AAiW1PB6C5ICIaIKd7cb-18" target="AAiW1PB6C5ICIaIKd7cb-21">
          <mxGeometry relative="1" as="geometry" />
        </mxCell>
        <mxCell id="AAiW1PB6C5ICIaIKd7cb-18" value="inizializzo tabella &quot;area&quot; di 0 con &lt;br&gt;dimensioni dimr e dimc" style="rounded=0;whiteSpace=wrap;html=1;fillColor=#E6E6E6;" vertex="1" parent="1">
          <mxGeometry x="480" y="710" width="240" height="60" as="geometry" />
        </mxCell>
        <mxCell id="AAiW1PB6C5ICIaIKd7cb-20" value="No" style="text;html=1;strokeColor=none;fillColor=none;align=center;verticalAlign=middle;whiteSpace=wrap;rounded=0;" vertex="1" parent="1">
          <mxGeometry x="550" y="670" width="60" height="30" as="geometry" />
        </mxCell>
        <mxCell id="AAiW1PB6C5ICIaIKd7cb-23" style="edgeStyle=orthogonalEdgeStyle;rounded=0;orthogonalLoop=1;jettySize=auto;html=1;entryX=0.5;entryY=0;entryDx=0;entryDy=0;" edge="1" parent="1" source="AAiW1PB6C5ICIaIKd7cb-21" target="AAiW1PB6C5ICIaIKd7cb-108">
          <mxGeometry relative="1" as="geometry">
            <mxPoint x="860" y="840" as="targetPoint" />
            <Array as="points">
              <mxPoint x="1940" y="860" />
            </Array>
          </mxGeometry>
        </mxCell>
        <mxCell id="AAiW1PB6C5ICIaIKd7cb-26" value="" style="edgeStyle=orthogonalEdgeStyle;rounded=0;orthogonalLoop=1;jettySize=auto;html=1;" edge="1" parent="1" source="AAiW1PB6C5ICIaIKd7cb-21" target="AAiW1PB6C5ICIaIKd7cb-25">
          <mxGeometry relative="1" as="geometry" />
        </mxCell>
        <mxCell id="AAiW1PB6C5ICIaIKd7cb-21" value="E&#39; possibile leggere un &lt;br&gt;carattere dal file?" style="rhombus;whiteSpace=wrap;html=1;fillColor=#99FFFF;" vertex="1" parent="1">
          <mxGeometry x="480" y="800" width="240" height="80" as="geometry" />
        </mxCell>
        <mxCell id="AAiW1PB6C5ICIaIKd7cb-24" value="No" style="text;html=1;strokeColor=none;fillColor=none;align=center;verticalAlign=middle;whiteSpace=wrap;rounded=0;" vertex="1" parent="1">
          <mxGeometry x="700" y="840" width="60" height="30" as="geometry" />
        </mxCell>
        <mxCell id="AAiW1PB6C5ICIaIKd7cb-30" value="" style="edgeStyle=orthogonalEdgeStyle;rounded=0;orthogonalLoop=1;jettySize=auto;html=1;" edge="1" parent="1" source="AAiW1PB6C5ICIaIKd7cb-25" target="AAiW1PB6C5ICIaIKd7cb-29">
          <mxGeometry relative="1" as="geometry" />
        </mxCell>
        <mxCell id="AAiW1PB6C5ICIaIKd7cb-25" value="leggi carattere e salvalo nella variabile &quot;comando&quot;" style="rounded=0;whiteSpace=wrap;html=1;fillColor=#E6E6E6;" vertex="1" parent="1">
          <mxGeometry x="480" y="910" width="240" height="60" as="geometry" />
        </mxCell>
        <mxCell id="AAiW1PB6C5ICIaIKd7cb-27" value="Yes" style="text;html=1;strokeColor=none;fillColor=none;align=center;verticalAlign=middle;whiteSpace=wrap;rounded=0;" vertex="1" parent="1">
          <mxGeometry x="550" y="880" width="60" height="30" as="geometry" />
        </mxCell>
        <mxCell id="AAiW1PB6C5ICIaIKd7cb-107" style="edgeStyle=orthogonalEdgeStyle;rounded=0;orthogonalLoop=1;jettySize=auto;html=1;" edge="1" parent="1" source="AAiW1PB6C5ICIaIKd7cb-28">
          <mxGeometry relative="1" as="geometry">
            <mxPoint x="600" y="780" as="targetPoint" />
            <Array as="points">
              <mxPoint x="600" y="1280" />
              <mxPoint x="360" y="1280" />
              <mxPoint x="360" y="780" />
            </Array>
          </mxGeometry>
        </mxCell>
        <mxCell id="AAiW1PB6C5ICIaIKd7cb-28" value="- leggi due dati float e salvali nelle variabili &quot;x&quot; e &quot;y&quot;&lt;br&gt;- considerando dimc come dimensione massima, trasformo x in intero&lt;br&gt;- considerando dimc come dimensione massima, trasformo y in intero&lt;br&gt;- nella tabella &quot;area&quot; scrivo 1 nelle coordinate restituite dalle due funzioni num_int appena fatte" style="rounded=0;whiteSpace=wrap;html=1;fillColor=#E6E6E6;" vertex="1" parent="1">
          <mxGeometry x="450" y="1110" width="300" height="110" as="geometry" />
        </mxCell>
        <mxCell id="AAiW1PB6C5ICIaIKd7cb-31" value="" style="edgeStyle=orthogonalEdgeStyle;rounded=0;orthogonalLoop=1;jettySize=auto;html=1;" edge="1" parent="1" source="AAiW1PB6C5ICIaIKd7cb-29" target="AAiW1PB6C5ICIaIKd7cb-28">
          <mxGeometry relative="1" as="geometry" />
        </mxCell>
        <mxCell id="AAiW1PB6C5ICIaIKd7cb-33" style="edgeStyle=orthogonalEdgeStyle;rounded=0;orthogonalLoop=1;jettySize=auto;html=1;entryX=0.5;entryY=0;entryDx=0;entryDy=0;" edge="1" parent="1" source="AAiW1PB6C5ICIaIKd7cb-29" target="AAiW1PB6C5ICIaIKd7cb-37">
          <mxGeometry relative="1" as="geometry">
            <mxPoint x="890" y="1040" as="targetPoint" />
          </mxGeometry>
        </mxCell>
        <mxCell id="AAiW1PB6C5ICIaIKd7cb-29" value="&quot;comando&quot; è uguale alla lettera &#39;P&#39;" style="rhombus;whiteSpace=wrap;html=1;fillColor=#99FFFF;" vertex="1" parent="1">
          <mxGeometry x="480" y="1000" width="240" height="80" as="geometry" />
        </mxCell>
        <mxCell id="AAiW1PB6C5ICIaIKd7cb-32" value="Yes" style="text;html=1;strokeColor=none;fillColor=none;align=center;verticalAlign=middle;whiteSpace=wrap;rounded=0;" vertex="1" parent="1">
          <mxGeometry x="550" y="1080" width="60" height="30" as="geometry" />
        </mxCell>
        <mxCell id="AAiW1PB6C5ICIaIKd7cb-34" value="No" style="text;html=1;strokeColor=none;fillColor=none;align=center;verticalAlign=middle;whiteSpace=wrap;rounded=0;" vertex="1" parent="1">
          <mxGeometry x="697.5" y="1040" width="60" height="30" as="geometry" />
        </mxCell>
        <mxCell id="AAiW1PB6C5ICIaIKd7cb-42" style="edgeStyle=orthogonalEdgeStyle;rounded=0;orthogonalLoop=1;jettySize=auto;html=1;entryX=0.5;entryY=0;entryDx=0;entryDy=0;" edge="1" parent="1" source="AAiW1PB6C5ICIaIKd7cb-37" target="AAiW1PB6C5ICIaIKd7cb-40">
          <mxGeometry relative="1" as="geometry" />
        </mxCell>
        <mxCell id="AAiW1PB6C5ICIaIKd7cb-44" style="edgeStyle=orthogonalEdgeStyle;rounded=0;orthogonalLoop=1;jettySize=auto;html=1;entryX=0.5;entryY=0;entryDx=0;entryDy=0;" edge="1" parent="1" source="AAiW1PB6C5ICIaIKd7cb-37" target="AAiW1PB6C5ICIaIKd7cb-43">
          <mxGeometry relative="1" as="geometry" />
        </mxCell>
        <mxCell id="AAiW1PB6C5ICIaIKd7cb-37" value="&quot;comando&quot; è uguale alla lettera &#39;L&#39;" style="rhombus;whiteSpace=wrap;html=1;fillColor=#99FFFF;" vertex="1" parent="1">
          <mxGeometry x="880" y="1080" width="240" height="80" as="geometry" />
        </mxCell>
        <mxCell id="AAiW1PB6C5ICIaIKd7cb-38" value="Yes" style="text;html=1;strokeColor=none;fillColor=none;align=center;verticalAlign=middle;whiteSpace=wrap;rounded=0;" vertex="1" parent="1">
          <mxGeometry x="950" y="1150" width="60" height="30" as="geometry" />
        </mxCell>
        <mxCell id="AAiW1PB6C5ICIaIKd7cb-39" value="No" style="text;html=1;strokeColor=none;fillColor=none;align=center;verticalAlign=middle;whiteSpace=wrap;rounded=0;" vertex="1" parent="1">
          <mxGeometry x="1120" y="1090" width="60" height="30" as="geometry" />
        </mxCell>
        <mxCell id="AAiW1PB6C5ICIaIKd7cb-106" style="edgeStyle=orthogonalEdgeStyle;rounded=0;orthogonalLoop=1;jettySize=auto;html=1;exitX=0.5;exitY=1;exitDx=0;exitDy=0;" edge="1" parent="1" source="AAiW1PB6C5ICIaIKd7cb-40">
          <mxGeometry relative="1" as="geometry">
            <mxPoint x="360" y="1280" as="targetPoint" />
            <mxPoint x="1600" y="1170" as="sourcePoint" />
            <Array as="points">
              <mxPoint x="1360" y="2970" />
              <mxPoint x="360" y="2970" />
            </Array>
          </mxGeometry>
        </mxCell>
        <mxCell id="AAiW1PB6C5ICIaIKd7cb-40" value="print: &quot;Comando errato&quot;" style="shape=parallelogram;perimeter=parallelogramPerimeter;whiteSpace=wrap;html=1;fixedSize=1;fillColor=#FF99FF;" vertex="1" parent="1">
          <mxGeometry x="1240" y="1200" width="240" height="60" as="geometry" />
        </mxCell>
        <mxCell id="AAiW1PB6C5ICIaIKd7cb-46" value="" style="edgeStyle=orthogonalEdgeStyle;rounded=0;orthogonalLoop=1;jettySize=auto;html=1;" edge="1" parent="1" source="AAiW1PB6C5ICIaIKd7cb-43" target="AAiW1PB6C5ICIaIKd7cb-45">
          <mxGeometry relative="1" as="geometry" />
        </mxCell>
        <mxCell id="AAiW1PB6C5ICIaIKd7cb-43" value="- leggi quattro dati float e salvali nelle variabili &quot;x1&quot;, &quot;y1&quot;, &quot;x2&quot; e &quot;y2&quot;&lt;br&gt;- considerando dimc come dimensione massima, trasformo x1 in intero&lt;br&gt;- considerando dimc come dimensione massima, trasformo y1 in intero&lt;br&gt;- considerando dimc come dimensione massima, trasformo x2 in intero&lt;br&gt;- considerando dimc come dimensione massima, trasformo y2 in intero&lt;br&gt;- nella tabella &quot;area&quot; scrivo 1 nelle coordinate restituite dalle due funzioni num_int appena fatte" style="rounded=0;whiteSpace=wrap;html=1;fillColor=#E6E6E6;" vertex="1" parent="1">
          <mxGeometry x="850" y="1180" width="300" height="177.5" as="geometry" />
        </mxCell>
        <mxCell id="AAiW1PB6C5ICIaIKd7cb-48" value="" style="edgeStyle=orthogonalEdgeStyle;rounded=0;orthogonalLoop=1;jettySize=auto;html=1;" edge="1" parent="1" source="AAiW1PB6C5ICIaIKd7cb-45" target="AAiW1PB6C5ICIaIKd7cb-47">
          <mxGeometry relative="1" as="geometry" />
        </mxCell>
        <mxCell id="AAiW1PB6C5ICIaIKd7cb-45" value="- DX = x2 - x1&lt;br&gt;- DY = y2 - y1&lt;br&gt;swap = 0" style="rounded=0;whiteSpace=wrap;html=1;fillColor=#E6E6E6;" vertex="1" parent="1">
          <mxGeometry x="880" y="1370" width="240" height="50" as="geometry" />
        </mxCell>
        <mxCell id="AAiW1PB6C5ICIaIKd7cb-50" value="" style="edgeStyle=orthogonalEdgeStyle;rounded=0;orthogonalLoop=1;jettySize=auto;html=1;" edge="1" parent="1" source="AAiW1PB6C5ICIaIKd7cb-47" target="AAiW1PB6C5ICIaIKd7cb-49">
          <mxGeometry relative="1" as="geometry" />
        </mxCell>
        <mxCell id="AAiW1PB6C5ICIaIKd7cb-54" style="edgeStyle=orthogonalEdgeStyle;rounded=0;orthogonalLoop=1;jettySize=auto;html=1;entryX=0.5;entryY=0;entryDx=0;entryDy=0;" edge="1" parent="1" source="AAiW1PB6C5ICIaIKd7cb-47" target="AAiW1PB6C5ICIaIKd7cb-52">
          <mxGeometry relative="1" as="geometry">
            <mxPoint x="1189.9999999999998" y="1650" as="targetPoint" />
            <Array as="points">
              <mxPoint x="1190" y="1500" />
              <mxPoint x="1190" y="1650" />
              <mxPoint x="1000" y="1650" />
            </Array>
          </mxGeometry>
        </mxCell>
        <mxCell id="AAiW1PB6C5ICIaIKd7cb-47" value="|DX| &amp;lt; |DY|" style="rhombus;whiteSpace=wrap;html=1;fillColor=#99FFFF;" vertex="1" parent="1">
          <mxGeometry x="880" y="1460" width="240" height="80" as="geometry" />
        </mxCell>
        <mxCell id="AAiW1PB6C5ICIaIKd7cb-53" value="" style="edgeStyle=orthogonalEdgeStyle;rounded=0;orthogonalLoop=1;jettySize=auto;html=1;" edge="1" parent="1" source="AAiW1PB6C5ICIaIKd7cb-49" target="AAiW1PB6C5ICIaIKd7cb-52">
          <mxGeometry relative="1" as="geometry" />
        </mxCell>
        <mxCell id="AAiW1PB6C5ICIaIKd7cb-49" value="- swap = 1&lt;br&gt;- inverti valore di DX con DY" style="rounded=0;whiteSpace=wrap;html=1;fillColor=#E6E6E6;" vertex="1" parent="1">
          <mxGeometry x="880" y="1570" width="240" height="50" as="geometry" />
        </mxCell>
        <mxCell id="AAiW1PB6C5ICIaIKd7cb-51" value="Yes" style="text;html=1;strokeColor=none;fillColor=none;align=center;verticalAlign=middle;whiteSpace=wrap;rounded=0;" vertex="1" parent="1">
          <mxGeometry x="990" y="1540" width="60" height="30" as="geometry" />
        </mxCell>
        <mxCell id="AAiW1PB6C5ICIaIKd7cb-57" value="" style="edgeStyle=orthogonalEdgeStyle;rounded=0;orthogonalLoop=1;jettySize=auto;html=1;" edge="1" parent="1" source="AAiW1PB6C5ICIaIKd7cb-52" target="AAiW1PB6C5ICIaIKd7cb-56">
          <mxGeometry relative="1" as="geometry" />
        </mxCell>
        <mxCell id="AAiW1PB6C5ICIaIKd7cb-52" value="- d = 2*|DY|-|DX|&lt;br&gt;- nella tabella &quot;area&quot; metti 1 nelle coordinate x1, y1&lt;br&gt;- nella tabella &quot;area&quot; metti 1 nelle coordinate x2, y2&lt;br&gt;- x = x1&lt;br&gt;- y = y1" style="rounded=0;whiteSpace=wrap;html=1;fillColor=#E6E6E6;" vertex="1" parent="1">
          <mxGeometry x="880" y="1670" width="240" height="110" as="geometry" />
        </mxCell>
        <mxCell id="AAiW1PB6C5ICIaIKd7cb-55" value="No" style="text;html=1;strokeColor=none;fillColor=none;align=center;verticalAlign=middle;whiteSpace=wrap;rounded=0;" vertex="1" parent="1">
          <mxGeometry x="1108" y="1480" width="60" height="30" as="geometry" />
        </mxCell>
        <mxCell id="AAiW1PB6C5ICIaIKd7cb-56" value="x1 &amp;gt; x2" style="rhombus;whiteSpace=wrap;html=1;fillColor=#99FFFF;" vertex="1" parent="1">
          <mxGeometry x="880" y="1810" width="240" height="80" as="geometry" />
        </mxCell>
        <mxCell id="AAiW1PB6C5ICIaIKd7cb-72" style="edgeStyle=orthogonalEdgeStyle;rounded=0;orthogonalLoop=1;jettySize=auto;html=1;" edge="1" parent="1" source="AAiW1PB6C5ICIaIKd7cb-58" target="AAiW1PB6C5ICIaIKd7cb-62">
          <mxGeometry relative="1" as="geometry" />
        </mxCell>
        <mxCell id="AAiW1PB6C5ICIaIKd7cb-58" value="q = -1" style="rounded=0;whiteSpace=wrap;html=1;fillColor=#E6E6E6;" vertex="1" parent="1">
          <mxGeometry x="820" y="1920" width="140" height="50" as="geometry" />
        </mxCell>
        <mxCell id="AAiW1PB6C5ICIaIKd7cb-62" value="y1 &amp;gt; y2" style="rhombus;whiteSpace=wrap;html=1;fillColor=#99FFFF;" vertex="1" parent="1">
          <mxGeometry x="880" y="2020" width="240" height="80" as="geometry" />
        </mxCell>
        <mxCell id="AAiW1PB6C5ICIaIKd7cb-73" style="edgeStyle=orthogonalEdgeStyle;rounded=0;orthogonalLoop=1;jettySize=auto;html=1;" edge="1" parent="1" source="AAiW1PB6C5ICIaIKd7cb-63" target="AAiW1PB6C5ICIaIKd7cb-62">
          <mxGeometry relative="1" as="geometry" />
        </mxCell>
        <mxCell id="AAiW1PB6C5ICIaIKd7cb-63" value="q = 1" style="rounded=0;whiteSpace=wrap;html=1;fillColor=#E6E6E6;" vertex="1" parent="1">
          <mxGeometry x="1040" y="1920" width="140" height="50" as="geometry" />
        </mxCell>
        <mxCell id="AAiW1PB6C5ICIaIKd7cb-75" style="edgeStyle=orthogonalEdgeStyle;rounded=0;orthogonalLoop=1;jettySize=auto;html=1;entryX=0.5;entryY=0;entryDx=0;entryDy=0;" edge="1" parent="1" source="AAiW1PB6C5ICIaIKd7cb-64" target="AAiW1PB6C5ICIaIKd7cb-74">
          <mxGeometry relative="1" as="geometry" />
        </mxCell>
        <mxCell id="AAiW1PB6C5ICIaIKd7cb-64" value="s = -1" style="rounded=0;whiteSpace=wrap;html=1;fillColor=#E6E6E6;" vertex="1" parent="1">
          <mxGeometry x="820" y="2130" width="140" height="50" as="geometry" />
        </mxCell>
        <mxCell id="AAiW1PB6C5ICIaIKd7cb-76" style="edgeStyle=orthogonalEdgeStyle;rounded=0;orthogonalLoop=1;jettySize=auto;html=1;entryX=0.5;entryY=0;entryDx=0;entryDy=0;" edge="1" parent="1" source="AAiW1PB6C5ICIaIKd7cb-65" target="AAiW1PB6C5ICIaIKd7cb-74">
          <mxGeometry relative="1" as="geometry" />
        </mxCell>
        <mxCell id="AAiW1PB6C5ICIaIKd7cb-65" value="s = -1" style="rounded=0;whiteSpace=wrap;html=1;fillColor=#E6E6E6;" vertex="1" parent="1">
          <mxGeometry x="1040" y="2130" width="140" height="50" as="geometry" />
        </mxCell>
        <mxCell id="AAiW1PB6C5ICIaIKd7cb-67" value="" style="endArrow=classic;html=1;rounded=0;exitX=0;exitY=1;exitDx=0;exitDy=0;entryX=0.5;entryY=0;entryDx=0;entryDy=0;" edge="1" parent="1" source="AAiW1PB6C5ICIaIKd7cb-56" target="AAiW1PB6C5ICIaIKd7cb-58">
          <mxGeometry width="50" height="50" relative="1" as="geometry">
            <mxPoint x="1000" y="1940" as="sourcePoint" />
            <mxPoint x="1050" y="1890" as="targetPoint" />
            <Array as="points">
              <mxPoint x="890" y="1870" />
            </Array>
          </mxGeometry>
        </mxCell>
        <mxCell id="AAiW1PB6C5ICIaIKd7cb-68" value="" style="endArrow=classic;html=1;rounded=0;exitX=0;exitY=1;exitDx=0;exitDy=0;entryX=0.5;entryY=0;entryDx=0;entryDy=0;" edge="1" parent="1">
          <mxGeometry width="50" height="50" relative="1" as="geometry">
            <mxPoint x="940" y="2080" as="sourcePoint" />
            <mxPoint x="890" y="2130" as="targetPoint" />
            <Array as="points">
              <mxPoint x="890" y="2080" />
            </Array>
          </mxGeometry>
        </mxCell>
        <mxCell id="AAiW1PB6C5ICIaIKd7cb-70" value="" style="endArrow=classic;html=1;rounded=0;exitX=1;exitY=1;exitDx=0;exitDy=0;entryX=0.5;entryY=0;entryDx=0;entryDy=0;" edge="1" parent="1" source="AAiW1PB6C5ICIaIKd7cb-56" target="AAiW1PB6C5ICIaIKd7cb-63">
          <mxGeometry width="50" height="50" relative="1" as="geometry">
            <mxPoint x="1060" y="1980" as="sourcePoint" />
            <mxPoint x="1110" y="1930" as="targetPoint" />
            <Array as="points">
              <mxPoint x="1110" y="1870" />
            </Array>
          </mxGeometry>
        </mxCell>
        <mxCell id="AAiW1PB6C5ICIaIKd7cb-71" value="" style="endArrow=classic;html=1;rounded=0;exitX=1;exitY=1;exitDx=0;exitDy=0;entryX=0.5;entryY=0;entryDx=0;entryDy=0;" edge="1" parent="1">
          <mxGeometry width="50" height="50" relative="1" as="geometry">
            <mxPoint x="1058" y="2080" as="sourcePoint" />
            <mxPoint x="1108" y="2130" as="targetPoint" />
            <Array as="points">
              <mxPoint x="1108" y="2080" />
            </Array>
          </mxGeometry>
        </mxCell>
        <mxCell id="AAiW1PB6C5ICIaIKd7cb-78" value="" style="edgeStyle=orthogonalEdgeStyle;rounded=0;orthogonalLoop=1;jettySize=auto;html=1;" edge="1" parent="1" source="AAiW1PB6C5ICIaIKd7cb-74" target="AAiW1PB6C5ICIaIKd7cb-77">
          <mxGeometry relative="1" as="geometry" />
        </mxCell>
        <mxCell id="AAiW1PB6C5ICIaIKd7cb-74" value="k = 1" style="rounded=0;whiteSpace=wrap;html=1;fillColor=#E6E6E6;" vertex="1" parent="1">
          <mxGeometry x="930" y="2220" width="140" height="50" as="geometry" />
        </mxCell>
        <mxCell id="AAiW1PB6C5ICIaIKd7cb-80" value="" style="edgeStyle=orthogonalEdgeStyle;rounded=0;orthogonalLoop=1;jettySize=auto;html=1;" edge="1" parent="1" source="AAiW1PB6C5ICIaIKd7cb-77" target="AAiW1PB6C5ICIaIKd7cb-79">
          <mxGeometry relative="1" as="geometry" />
        </mxCell>
        <mxCell id="AAiW1PB6C5ICIaIKd7cb-101" style="edgeStyle=orthogonalEdgeStyle;rounded=0;orthogonalLoop=1;jettySize=auto;html=1;" edge="1" parent="1" source="AAiW1PB6C5ICIaIKd7cb-77">
          <mxGeometry relative="1" as="geometry">
            <mxPoint x="1360" y="2340" as="targetPoint" />
          </mxGeometry>
        </mxCell>
        <mxCell id="AAiW1PB6C5ICIaIKd7cb-77" value="k &amp;lt; DX" style="rhombus;whiteSpace=wrap;html=1;fillColor=#99FFFF;" vertex="1" parent="1">
          <mxGeometry x="880" y="2300" width="240" height="80" as="geometry" />
        </mxCell>
        <mxCell id="AAiW1PB6C5ICIaIKd7cb-79" value="d &amp;gt; 0" style="rhombus;whiteSpace=wrap;html=1;fillColor=#99FFFF;" vertex="1" parent="1">
          <mxGeometry x="880" y="2410" width="240" height="80" as="geometry" />
        </mxCell>
        <mxCell id="AAiW1PB6C5ICIaIKd7cb-96" style="edgeStyle=orthogonalEdgeStyle;rounded=0;orthogonalLoop=1;jettySize=auto;html=1;" edge="1" parent="1" source="AAiW1PB6C5ICIaIKd7cb-81" target="AAiW1PB6C5ICIaIKd7cb-95">
          <mxGeometry relative="1" as="geometry" />
        </mxCell>
        <mxCell id="AAiW1PB6C5ICIaIKd7cb-81" value="x = x + q&lt;br&gt;y = y + s&lt;br&gt;d = d + 2*( |DY| - |DX| )" style="rounded=0;whiteSpace=wrap;html=1;fillColor=#E6E6E6;" vertex="1" parent="1">
          <mxGeometry x="820" y="2520" width="140" height="50" as="geometry" />
        </mxCell>
        <mxCell id="AAiW1PB6C5ICIaIKd7cb-86" value="" style="edgeStyle=orthogonalEdgeStyle;rounded=0;orthogonalLoop=1;jettySize=auto;html=1;" edge="1" parent="1" source="AAiW1PB6C5ICIaIKd7cb-82" target="AAiW1PB6C5ICIaIKd7cb-85">
          <mxGeometry relative="1" as="geometry" />
        </mxCell>
        <mxCell id="AAiW1PB6C5ICIaIKd7cb-82" value="x = x + q&lt;br style=&quot;border-color: var(--border-color);&quot;&gt;d = d + 2*|DY|" style="rounded=0;whiteSpace=wrap;html=1;fillColor=#E6E6E6;" vertex="1" parent="1">
          <mxGeometry x="1040" y="2520" width="140" height="50" as="geometry" />
        </mxCell>
        <mxCell id="AAiW1PB6C5ICIaIKd7cb-83" value="" style="endArrow=classic;html=1;rounded=0;exitX=0;exitY=1;exitDx=0;exitDy=0;entryX=0.5;entryY=0;entryDx=0;entryDy=0;" edge="1" parent="1">
          <mxGeometry width="50" height="50" relative="1" as="geometry">
            <mxPoint x="940" y="2470" as="sourcePoint" />
            <mxPoint x="890" y="2520" as="targetPoint" />
            <Array as="points">
              <mxPoint x="890" y="2470" />
            </Array>
          </mxGeometry>
        </mxCell>
        <mxCell id="AAiW1PB6C5ICIaIKd7cb-84" value="" style="endArrow=classic;html=1;rounded=0;exitX=1;exitY=1;exitDx=0;exitDy=0;entryX=0.5;entryY=0;entryDx=0;entryDy=0;" edge="1" parent="1">
          <mxGeometry width="50" height="50" relative="1" as="geometry">
            <mxPoint x="1058" y="2470" as="sourcePoint" />
            <mxPoint x="1108" y="2520" as="targetPoint" />
            <Array as="points">
              <mxPoint x="1108" y="2470" />
            </Array>
          </mxGeometry>
        </mxCell>
        <mxCell id="AAiW1PB6C5ICIaIKd7cb-88" value="" style="edgeStyle=orthogonalEdgeStyle;rounded=0;orthogonalLoop=1;jettySize=auto;html=1;" edge="1" parent="1" source="AAiW1PB6C5ICIaIKd7cb-85" target="AAiW1PB6C5ICIaIKd7cb-87">
          <mxGeometry relative="1" as="geometry" />
        </mxCell>
        <mxCell id="AAiW1PB6C5ICIaIKd7cb-89" style="edgeStyle=orthogonalEdgeStyle;rounded=0;orthogonalLoop=1;jettySize=auto;html=1;entryX=0.5;entryY=0;entryDx=0;entryDy=0;" edge="1" parent="1" source="AAiW1PB6C5ICIaIKd7cb-85" target="AAiW1PB6C5ICIaIKd7cb-95">
          <mxGeometry relative="1" as="geometry">
            <Array as="points">
              <mxPoint x="1210" y="2640" />
              <mxPoint x="1210" y="2770" />
              <mxPoint x="1000" y="2770" />
            </Array>
          </mxGeometry>
        </mxCell>
        <mxCell id="AAiW1PB6C5ICIaIKd7cb-85" value="swap = 1" style="rhombus;whiteSpace=wrap;html=1;fillColor=#99FFFF;" vertex="1" parent="1">
          <mxGeometry x="1035" y="2600" width="150" height="80" as="geometry" />
        </mxCell>
        <mxCell id="AAiW1PB6C5ICIaIKd7cb-97" style="edgeStyle=orthogonalEdgeStyle;rounded=0;orthogonalLoop=1;jettySize=auto;html=1;entryX=0.5;entryY=0;entryDx=0;entryDy=0;" edge="1" parent="1" source="AAiW1PB6C5ICIaIKd7cb-87" target="AAiW1PB6C5ICIaIKd7cb-95">
          <mxGeometry relative="1" as="geometry" />
        </mxCell>
        <mxCell id="AAiW1PB6C5ICIaIKd7cb-87" value="y = y + s&lt;br&gt;x = x - q" style="rounded=0;whiteSpace=wrap;html=1;fillColor=#E6E6E6;" vertex="1" parent="1">
          <mxGeometry x="1040" y="2700" width="140" height="50" as="geometry" />
        </mxCell>
        <mxCell id="AAiW1PB6C5ICIaIKd7cb-90" value="Yes" style="text;html=1;strokeColor=none;fillColor=none;align=center;verticalAlign=middle;whiteSpace=wrap;rounded=0;" vertex="1" parent="1">
          <mxGeometry x="840" y="1870" width="60" height="30" as="geometry" />
        </mxCell>
        <mxCell id="AAiW1PB6C5ICIaIKd7cb-91" value="Yes" style="text;html=1;strokeColor=none;fillColor=none;align=center;verticalAlign=middle;whiteSpace=wrap;rounded=0;" vertex="1" parent="1">
          <mxGeometry x="840" y="2080" width="60" height="30" as="geometry" />
        </mxCell>
        <mxCell id="AAiW1PB6C5ICIaIKd7cb-92" value="Yes" style="text;html=1;strokeColor=none;fillColor=none;align=center;verticalAlign=middle;whiteSpace=wrap;rounded=0;" vertex="1" parent="1">
          <mxGeometry x="950" y="2380" width="60" height="30" as="geometry" />
        </mxCell>
        <mxCell id="AAiW1PB6C5ICIaIKd7cb-93" value="Yes" style="text;html=1;strokeColor=none;fillColor=none;align=center;verticalAlign=middle;whiteSpace=wrap;rounded=0;" vertex="1" parent="1">
          <mxGeometry x="840" y="2481" width="60" height="30" as="geometry" />
        </mxCell>
        <mxCell id="AAiW1PB6C5ICIaIKd7cb-94" value="Yes" style="text;html=1;strokeColor=none;fillColor=none;align=center;verticalAlign=middle;whiteSpace=wrap;rounded=0;" vertex="1" parent="1">
          <mxGeometry x="1050" y="2670" width="60" height="30" as="geometry" />
        </mxCell>
        <mxCell id="AAiW1PB6C5ICIaIKd7cb-104" style="edgeStyle=orthogonalEdgeStyle;rounded=0;orthogonalLoop=1;jettySize=auto;html=1;" edge="1" parent="1" source="AAiW1PB6C5ICIaIKd7cb-95">
          <mxGeometry relative="1" as="geometry">
            <mxPoint x="1000" y="2280" as="targetPoint" />
            <Array as="points">
              <mxPoint x="1000" y="2870" />
              <mxPoint x="760" y="2870" />
              <mxPoint x="760" y="2280" />
            </Array>
          </mxGeometry>
        </mxCell>
        <mxCell id="AAiW1PB6C5ICIaIKd7cb-95" value="- nella tabella &quot;area&quot; metti 1 nelle coordinate x2, y2&lt;br&gt;k = k+1" style="rounded=0;whiteSpace=wrap;html=1;fillColor=#E6E6E6;" vertex="1" parent="1">
          <mxGeometry x="900" y="2790" width="200" height="50" as="geometry" />
        </mxCell>
        <mxCell id="AAiW1PB6C5ICIaIKd7cb-98" value="No" style="text;html=1;strokeColor=none;fillColor=none;align=center;verticalAlign=middle;whiteSpace=wrap;rounded=0;" vertex="1" parent="1">
          <mxGeometry x="1108" y="2481" width="60" height="30" as="geometry" />
        </mxCell>
        <mxCell id="AAiW1PB6C5ICIaIKd7cb-99" value="No" style="text;html=1;strokeColor=none;fillColor=none;align=center;verticalAlign=middle;whiteSpace=wrap;rounded=0;" vertex="1" parent="1">
          <mxGeometry x="1168" y="2610" width="60" height="30" as="geometry" />
        </mxCell>
        <mxCell id="AAiW1PB6C5ICIaIKd7cb-100" value="No" style="text;html=1;strokeColor=none;fillColor=none;align=center;verticalAlign=middle;whiteSpace=wrap;rounded=0;" vertex="1" parent="1">
          <mxGeometry x="1120" y="2310" width="60" height="30" as="geometry" />
        </mxCell>
        <mxCell id="AAiW1PB6C5ICIaIKd7cb-102" value="No" style="text;html=1;strokeColor=none;fillColor=none;align=center;verticalAlign=middle;whiteSpace=wrap;rounded=0;" vertex="1" parent="1">
          <mxGeometry x="1100" y="2080" width="60" height="30" as="geometry" />
        </mxCell>
        <mxCell id="AAiW1PB6C5ICIaIKd7cb-103" value="No" style="text;html=1;strokeColor=none;fillColor=none;align=center;verticalAlign=middle;whiteSpace=wrap;rounded=0;" vertex="1" parent="1">
          <mxGeometry x="1100" y="1870" width="60" height="30" as="geometry" />
        </mxCell>
        <mxCell id="AAiW1PB6C5ICIaIKd7cb-111" value="" style="edgeStyle=orthogonalEdgeStyle;rounded=0;orthogonalLoop=1;jettySize=auto;html=1;" edge="1" parent="1" source="AAiW1PB6C5ICIaIKd7cb-108" target="AAiW1PB6C5ICIaIKd7cb-109">
          <mxGeometry relative="1" as="geometry" />
        </mxCell>
        <mxCell id="AAiW1PB6C5ICIaIKd7cb-108" value="i = 0&lt;br&gt;j = 0" style="rounded=0;whiteSpace=wrap;html=1;fillColor=#E6E6E6;" vertex="1" parent="1">
          <mxGeometry x="1880" y="920" width="120" height="60" as="geometry" />
        </mxCell>
        <mxCell id="AAiW1PB6C5ICIaIKd7cb-112" value="" style="edgeStyle=orthogonalEdgeStyle;rounded=0;orthogonalLoop=1;jettySize=auto;html=1;" edge="1" parent="1" source="AAiW1PB6C5ICIaIKd7cb-109" target="AAiW1PB6C5ICIaIKd7cb-110">
          <mxGeometry relative="1" as="geometry" />
        </mxCell>
        <mxCell id="AAiW1PB6C5ICIaIKd7cb-135" style="edgeStyle=orthogonalEdgeStyle;rounded=0;orthogonalLoop=1;jettySize=auto;html=1;entryX=0.5;entryY=0;entryDx=0;entryDy=0;" edge="1" parent="1" source="AAiW1PB6C5ICIaIKd7cb-109" target="AAiW1PB6C5ICIaIKd7cb-139">
          <mxGeometry relative="1" as="geometry">
            <mxPoint x="1940" y="1960" as="targetPoint" />
            <Array as="points">
              <mxPoint x="2240" y="1050" />
              <mxPoint x="2240" y="1880" />
              <mxPoint x="1940" y="1880" />
            </Array>
          </mxGeometry>
        </mxCell>
        <mxCell id="AAiW1PB6C5ICIaIKd7cb-109" value="i &amp;lt; dimc" style="rhombus;whiteSpace=wrap;html=1;fillColor=#99FFFF;" vertex="1" parent="1">
          <mxGeometry x="1870" y="1010" width="140" height="80" as="geometry" />
        </mxCell>
        <mxCell id="AAiW1PB6C5ICIaIKd7cb-115" value="" style="edgeStyle=orthogonalEdgeStyle;rounded=0;orthogonalLoop=1;jettySize=auto;html=1;" edge="1" parent="1" source="AAiW1PB6C5ICIaIKd7cb-110" target="AAiW1PB6C5ICIaIKd7cb-114">
          <mxGeometry relative="1" as="geometry" />
        </mxCell>
        <mxCell id="AAiW1PB6C5ICIaIKd7cb-129" style="edgeStyle=orthogonalEdgeStyle;rounded=0;orthogonalLoop=1;jettySize=auto;html=1;entryX=0.5;entryY=0;entryDx=0;entryDy=0;" edge="1" parent="1" source="AAiW1PB6C5ICIaIKd7cb-110" target="AAiW1PB6C5ICIaIKd7cb-128">
          <mxGeometry relative="1" as="geometry" />
        </mxCell>
        <mxCell id="AAiW1PB6C5ICIaIKd7cb-110" value="j &amp;lt; dimr" style="rhombus;whiteSpace=wrap;html=1;fillColor=#99FFFF;" vertex="1" parent="1">
          <mxGeometry x="1870" y="1120" width="140" height="80" as="geometry" />
        </mxCell>
        <mxCell id="AAiW1PB6C5ICIaIKd7cb-114" value="nelle coordinate &#39;i&#39; &#39;j&#39; della &lt;br&gt;tabella &quot;area&quot; c&#39;è il bit 1" style="rhombus;whiteSpace=wrap;html=1;fillColor=#99FFFF;" vertex="1" parent="1">
          <mxGeometry x="1835" y="1220" width="210" height="105" as="geometry" />
        </mxCell>
        <mxCell id="AAiW1PB6C5ICIaIKd7cb-116" value="Yes" style="text;html=1;strokeColor=none;fillColor=none;align=center;verticalAlign=middle;whiteSpace=wrap;rounded=0;" vertex="1" parent="1">
          <mxGeometry x="1890" y="1200" width="60" height="30" as="geometry" />
        </mxCell>
        <mxCell id="AAiW1PB6C5ICIaIKd7cb-117" value="Yes" style="text;html=1;strokeColor=none;fillColor=none;align=center;verticalAlign=middle;whiteSpace=wrap;rounded=0;" vertex="1" parent="1">
          <mxGeometry x="1810" y="1295" width="60" height="30" as="geometry" />
        </mxCell>
        <mxCell id="AAiW1PB6C5ICIaIKd7cb-125" style="edgeStyle=orthogonalEdgeStyle;rounded=0;orthogonalLoop=1;jettySize=auto;html=1;entryX=0.5;entryY=0;entryDx=0;entryDy=0;" edge="1" parent="1" source="AAiW1PB6C5ICIaIKd7cb-119" target="AAiW1PB6C5ICIaIKd7cb-124">
          <mxGeometry relative="1" as="geometry" />
        </mxCell>
        <mxCell id="AAiW1PB6C5ICIaIKd7cb-119" value="printf: &#39;.&#39;" style="shape=parallelogram;perimeter=parallelogramPerimeter;whiteSpace=wrap;html=1;fixedSize=1;fillColor=#FF99FF;" vertex="1" parent="1">
          <mxGeometry x="1800" y="1350" width="120" height="60" as="geometry" />
        </mxCell>
        <mxCell id="AAiW1PB6C5ICIaIKd7cb-126" style="edgeStyle=orthogonalEdgeStyle;rounded=0;orthogonalLoop=1;jettySize=auto;html=1;entryX=0.5;entryY=0;entryDx=0;entryDy=0;" edge="1" parent="1" source="AAiW1PB6C5ICIaIKd7cb-120" target="AAiW1PB6C5ICIaIKd7cb-124">
          <mxGeometry relative="1" as="geometry" />
        </mxCell>
        <mxCell id="AAiW1PB6C5ICIaIKd7cb-120" value="printf: &#39; &#39;" style="shape=parallelogram;perimeter=parallelogramPerimeter;whiteSpace=wrap;html=1;fixedSize=1;fillColor=#FF99FF;" vertex="1" parent="1">
          <mxGeometry x="1960" y="1350" width="120" height="60" as="geometry" />
        </mxCell>
        <mxCell id="AAiW1PB6C5ICIaIKd7cb-121" value="" style="endArrow=classic;html=1;rounded=0;exitX=0;exitY=1;exitDx=0;exitDy=0;entryX=0.5;entryY=0;entryDx=0;entryDy=0;" edge="1" parent="1" source="AAiW1PB6C5ICIaIKd7cb-114" target="AAiW1PB6C5ICIaIKd7cb-119">
          <mxGeometry width="50" height="50" relative="1" as="geometry">
            <mxPoint x="1910" y="1320" as="sourcePoint" />
            <mxPoint x="1960" y="1270" as="targetPoint" />
            <Array as="points">
              <mxPoint x="1860" y="1299" />
            </Array>
          </mxGeometry>
        </mxCell>
        <mxCell id="AAiW1PB6C5ICIaIKd7cb-122" value="" style="endArrow=classic;html=1;rounded=0;exitX=0.741;exitY=0.762;exitDx=0;exitDy=0;entryX=0.5;entryY=0;entryDx=0;entryDy=0;exitPerimeter=0;" edge="1" parent="1" source="AAiW1PB6C5ICIaIKd7cb-114" target="AAiW1PB6C5ICIaIKd7cb-120">
          <mxGeometry width="50" height="50" relative="1" as="geometry">
            <mxPoint x="1910" y="1320" as="sourcePoint" />
            <mxPoint x="1960" y="1270" as="targetPoint" />
            <Array as="points">
              <mxPoint x="2020" y="1300" />
            </Array>
          </mxGeometry>
        </mxCell>
        <mxCell id="AAiW1PB6C5ICIaIKd7cb-123" value="No" style="text;html=1;strokeColor=none;fillColor=none;align=center;verticalAlign=middle;whiteSpace=wrap;rounded=0;" vertex="1" parent="1">
          <mxGeometry x="2010" y="1295" width="60" height="30" as="geometry" />
        </mxCell>
        <mxCell id="AAiW1PB6C5ICIaIKd7cb-124" value="j = j + 1" style="rounded=0;whiteSpace=wrap;html=1;fillColor=#E6E6E6;" vertex="1" parent="1">
          <mxGeometry x="1880" y="1440" width="120" height="60" as="geometry" />
        </mxCell>
        <mxCell id="AAiW1PB6C5ICIaIKd7cb-127" style="edgeStyle=orthogonalEdgeStyle;rounded=0;orthogonalLoop=1;jettySize=auto;html=1;" edge="1" parent="1" source="AAiW1PB6C5ICIaIKd7cb-124">
          <mxGeometry relative="1" as="geometry">
            <mxPoint x="1940" y="1100" as="targetPoint" />
            <Array as="points">
              <mxPoint x="1940" y="1520" />
              <mxPoint x="1760" y="1520" />
              <mxPoint x="1760" y="1100" />
            </Array>
          </mxGeometry>
        </mxCell>
        <mxCell id="AAiW1PB6C5ICIaIKd7cb-131" value="" style="edgeStyle=orthogonalEdgeStyle;rounded=0;orthogonalLoop=1;jettySize=auto;html=1;" edge="1" parent="1" source="AAiW1PB6C5ICIaIKd7cb-128" target="AAiW1PB6C5ICIaIKd7cb-130">
          <mxGeometry relative="1" as="geometry" />
        </mxCell>
        <mxCell id="AAiW1PB6C5ICIaIKd7cb-128" value="printf: &#39;\n&#39;" style="shape=parallelogram;perimeter=parallelogramPerimeter;whiteSpace=wrap;html=1;fixedSize=1;fillColor=#FF99FF;" vertex="1" parent="1">
          <mxGeometry x="2060" y="1550" width="120" height="60" as="geometry" />
        </mxCell>
        <mxCell id="AAiW1PB6C5ICIaIKd7cb-134" style="edgeStyle=orthogonalEdgeStyle;rounded=0;orthogonalLoop=1;jettySize=auto;html=1;" edge="1" parent="1" source="AAiW1PB6C5ICIaIKd7cb-130">
          <mxGeometry relative="1" as="geometry">
            <mxPoint x="1940" y="1000" as="targetPoint" />
            <Array as="points">
              <mxPoint x="2120" y="1720" />
              <mxPoint x="1720" y="1720" />
              <mxPoint x="1720" y="1000" />
            </Array>
          </mxGeometry>
        </mxCell>
        <mxCell id="AAiW1PB6C5ICIaIKd7cb-130" value="i = i + 1&lt;br&gt;j = 0" style="rounded=0;whiteSpace=wrap;html=1;fillColor=#E6E6E6;" vertex="1" parent="1">
          <mxGeometry x="2060" y="1630" width="120" height="60" as="geometry" />
        </mxCell>
        <mxCell id="AAiW1PB6C5ICIaIKd7cb-132" value="No" style="text;html=1;strokeColor=none;fillColor=none;align=center;verticalAlign=middle;whiteSpace=wrap;rounded=0;" vertex="1" parent="1">
          <mxGeometry x="2000" y="1130" width="60" height="30" as="geometry" />
        </mxCell>
        <mxCell id="AAiW1PB6C5ICIaIKd7cb-133" value="Yes" style="text;html=1;strokeColor=none;fillColor=none;align=center;verticalAlign=middle;whiteSpace=wrap;rounded=0;" vertex="1" parent="1">
          <mxGeometry x="1930" y="1080" width="60" height="30" as="geometry" />
        </mxCell>
        <mxCell id="AAiW1PB6C5ICIaIKd7cb-136" value="No" style="text;html=1;strokeColor=none;fillColor=none;align=center;verticalAlign=middle;whiteSpace=wrap;rounded=0;" vertex="1" parent="1">
          <mxGeometry x="2000" y="1025" width="60" height="30" as="geometry" />
        </mxCell>
        <mxCell id="AAiW1PB6C5ICIaIKd7cb-144" value="" style="edgeStyle=orthogonalEdgeStyle;rounded=0;orthogonalLoop=1;jettySize=auto;html=1;" edge="1" parent="1" source="AAiW1PB6C5ICIaIKd7cb-137" target="AAiW1PB6C5ICIaIKd7cb-143">
          <mxGeometry relative="1" as="geometry" />
        </mxCell>
        <mxCell id="AAiW1PB6C5ICIaIKd7cb-147" style="edgeStyle=orthogonalEdgeStyle;rounded=0;orthogonalLoop=1;jettySize=auto;html=1;entryX=0.5;entryY=0;entryDx=0;entryDy=0;" edge="1" parent="1" source="AAiW1PB6C5ICIaIKd7cb-137" target="AAiW1PB6C5ICIaIKd7cb-145">
          <mxGeometry relative="1" as="geometry">
            <Array as="points">
              <mxPoint x="2080" y="2110" />
              <mxPoint x="2080" y="2250" />
              <mxPoint x="1940" y="2250" />
            </Array>
          </mxGeometry>
        </mxCell>
        <mxCell id="AAiW1PB6C5ICIaIKd7cb-137" value="il file si è chiuso correttamente?" style="rhombus;whiteSpace=wrap;html=1;fillColor=#99FFFF;" vertex="1" parent="1">
          <mxGeometry x="1835" y="2030" width="210" height="105" as="geometry" />
        </mxCell>
        <mxCell id="AAiW1PB6C5ICIaIKd7cb-140" value="" style="edgeStyle=orthogonalEdgeStyle;rounded=0;orthogonalLoop=1;jettySize=auto;html=1;" edge="1" parent="1" source="AAiW1PB6C5ICIaIKd7cb-139" target="AAiW1PB6C5ICIaIKd7cb-137">
          <mxGeometry relative="1" as="geometry" />
        </mxCell>
        <mxCell id="AAiW1PB6C5ICIaIKd7cb-139" value="chiudi file" style="rounded=0;whiteSpace=wrap;html=1;fillColor=#E6E6E6;" vertex="1" parent="1">
          <mxGeometry x="1880" y="1950" width="120" height="60" as="geometry" />
        </mxCell>
        <mxCell id="AAiW1PB6C5ICIaIKd7cb-146" value="" style="edgeStyle=orthogonalEdgeStyle;rounded=0;orthogonalLoop=1;jettySize=auto;html=1;" edge="1" parent="1" source="AAiW1PB6C5ICIaIKd7cb-143" target="AAiW1PB6C5ICIaIKd7cb-145">
          <mxGeometry relative="1" as="geometry" />
        </mxCell>
        <mxCell id="AAiW1PB6C5ICIaIKd7cb-143" value="print: &quot;Error closing the file&quot;" style="shape=parallelogram;perimeter=parallelogramPerimeter;whiteSpace=wrap;html=1;fixedSize=1;fillColor=#FF99FF;" vertex="1" parent="1">
          <mxGeometry x="1835" y="2160" width="210" height="60" as="geometry" />
        </mxCell>
        <mxCell id="AAiW1PB6C5ICIaIKd7cb-145" value="END" style="ellipse;whiteSpace=wrap;html=1;fillColor=#FFFF99;" vertex="1" parent="1">
          <mxGeometry x="1880" y="2280" width="120" height="80" as="geometry" />
        </mxCell>
        <mxCell id="AAiW1PB6C5ICIaIKd7cb-148" value="Yes" style="text;html=1;strokeColor=none;fillColor=none;align=center;verticalAlign=middle;whiteSpace=wrap;rounded=0;" vertex="1" parent="1">
          <mxGeometry x="1890" y="2130" width="60" height="30" as="geometry" />
        </mxCell>
        <mxCell id="AAiW1PB6C5ICIaIKd7cb-149" value="No" style="text;html=1;strokeColor=none;fillColor=none;align=center;verticalAlign=middle;whiteSpace=wrap;rounded=0;" vertex="1" parent="1">
          <mxGeometry x="2020" y="2090" width="60" height="30" as="geometry" />
        </mxCell>
        <mxCell id="AAiW1PB6C5ICIaIKd7cb-151" value="END" style="ellipse;whiteSpace=wrap;html=1;fillColor=#FFFF99;" vertex="1" parent="1">
          <mxGeometry x="1045" y="740" width="120" height="80" as="geometry" />
        </mxCell>
      </root>
    </mxGraphModel>
  </diagram>
</mxfile>
